#!OML:ASF C:\ViconDB\ViconDB\414\Spring2016\041811\Spring2016.ASF
:FULLY-SPECIFIED
:DEGREES
503
root 8.49855 17.9279 -43.8424 -180.468 -13.7619 -173.422
lowerback -1.22267 -1.58505 2.81782
upperback -0.640462 -2.27336 3.12039
thorax 0.0483423 -1.19134 1.59224
lowerneck -13.2136 0.914424 -5.42541
upperneck 30.3402 -3.47173 11.8879
head 12.4964 -1.58904 4.83893
rclavicle -3.11875e-014 -2.28602e-014
rhumerus -87.9732 34.3087 -117.534
rradius 91.2371
rwrist 26.1107
rhand -42.8374 -2.05661
rfingers 7.12502
rthumb -15.7017 -31.4396
lclavicle -3.11875e-014 -2.28602e-014
lhumerus -85.5492 -44.6255 123.938
lradius 73.3466
lwrist -28.1513
lhand -45.8286 -1.74616
lfingers 7.12502
lthumb -18.5808 27.3864
rfemur 353.584 -591.392 36.8981
rtibia 39.1218
rfoot -436.965 -52.8741
rtoes 1.59028e-015
lfemur -24.4345 1.43533 -8.55348
ltibia 74.9806
lfoot 4.48796 -13.9603
ltoes 2.29e-013
504
root 8.50288 17.9305 -44.0297 -180.94 -13.8052 -172.695
lowerback -0.973269 -1.44875 2.98513
upperback -0.51469 -2.08408 3.09549
thorax 0.0293795 -1.09605 1.48073
lowerneck -12.8953 0.661567 -5.60626
upperneck 30.0712 -4.09914 12.6714
head 12.4155 -1.83146 5.07516
rclavicle -7.9708e-015 -1.82882e-014
rhumerus -88.2261 34.2771 -117.945
rradius 91.0256
rwrist 25.7108
rhand -43.0492 -2.10877
rfingers 7.12502
rthumb -15.9057 -31.4756
lclavicle -7.9708e-015 -1.82882e-014
lhumerus -85.5184 -44.7042 123.719
lradius 73.495
lwrist -29.3054
lhand -46.6285 -1.08989
lfingers 7.12502
lthumb -19.3501 27.9674
rfemur 352.443 -593.318 37.2827
rtibia 39.1941
rfoot -438.895 -51.9388
rtoes 2.06736e-014
lfemur -26.3271 1.4575 -7.67196
ltibia 75.5962
lfoot 2.83244 -12.9073
ltoes 2.54444e-013
505
root 8.47753 17.9389 -44.2473 -181.411 -13.198 -172.016
lowerback -1.19922 -1.12046 3.36985
upperback -0.198064 -1.68096 3.10698
thorax 0.469 -0.891083 1.27098
lowerneck -12.7178 0.385012 -6.03661
upperneck 29.8061 -4.63698 13.3895
head 12.3644 -2.05817 5.34858
rclavicle -1.98134e-014 1.20513e-014
rhumerus -88.4606 34.5684 -118.21
rradius 90.8631
rwrist 25.2113
rhand -43.236 -2.25731
rfingers 7.12502
rthumb -16.0857 -31.6097
lclavicle -1.98134e-014 1.20513e-014
lhumerus -85.2164 -44.6404 123.508
lradius 74.2276
lwrist -26.8346
lhand -45.4772 -3.38424
lfingers 7.12502
lthumb -18.2428 25.7803
rfemur 351.121 -596.514 37.6227
rtibia 39.2826
rfoot -443.14 -51.3167
rtoes -2.29e-013
lfemur -27.6194 1.85235 -6.95517
ltibia 75.8107
lfoot 0.899116 -11.6319
ltoes 2.25819e-013
506
root 8.471 17.9354 -44.436 -181.855 -13.1994 -171.746
lowerback -0.885162 -0.986476 3.23274
upperback -0.0767056 -1.47458 2.94631
thorax 0.416599 -0.782333 1.19062
lowerneck -12.3695 0.155192 -6.21346
upperneck 29.6171 -5.22222 14.0663
head 12.3171 -2.30601 5.55312
rclavicle -2.80869e-014 -1.91827e-014
rhumerus -88.6409 34.5635 -118.618
rradius 90.5643
rwrist 24.9406
rhand -43.4671 -2.46668
rfingers 7.12502
rthumb -16.3082 -31.8009
lclavicle -2.80869e-014 -1.91827e-014
lhumerus -85.2282 -44.6159 123.247
lradius 74.7556
lwrist -26.2562
lhand -43.8577 -4.33668
lfingers 7.12502
lthumb -16.6842 24.9663
rfemur 349.572 -598.908 37.0969
rtibia 39.4461
rfoot -445.659 -50.6324
rtoes 2.40132e-013
lfemur -29.1314 1.70986 -6.66149
ltibia 75.8067
lfoot -0.726743 -10.7067
ltoes 7.31528e-014
507
root 8.47589 17.9304 -44.6163 -182.176 -13.4716 -171.872
lowerback -0.506808 -0.979281 2.52582
upperback 0.0487652 -1.42347 2.74601
thorax 0.344236 -0.749004 1.38668
lowerneck -12.1825 -0.0496072 -6.53115
upperneck 29.4824 -5.80415 14.9233
head 12.3429 -2.5477 5.86296
rclavicle -2.17405e-014 2.46493e-014
rhumerus -88.8579 34.7724 -119.051
rradius 90.2949
rwrist 24.7511
rhand -43.8682 -2.69425
rfingers 7.12502
rthumb -16.6944 -31.9964
lclavicle -2.17405e-014 2.46493e-014
lhumerus -85.0667 -44.5538 122.799
lradius 74.9951
lwrist -27.12
lhand -43.8942 -3.7139
lfingers 7.12502
lthumb -16.7194 25.5861
rfemur 347.999 -601.314 36.0763
rtibia 39.6887
rfoot -447.924 -50.1122
rtoes -8.11041e-014
lfemur -30.7323 1.18245 -6.86345
ltibia 75.5081
lfoot -2.14354 -9.61881
ltoes 2.03555e-013
508
root 8.47283 17.9204 -44.7985 -182.484 -13.6985 -171.491
lowerback -0.292069 -0.943764 2.31497
upperback 0.138761 -1.36811 2.77544
thorax 0.321224 -0.721354 1.5384
lowerneck -11.7318 -0.306162 -7.04907
upperneck 29.1068 -6.30147 15.6526
head 12.2089 -2.79007 6.15902
rclavicle 2.43822e-016 -1.96797e-014
rhumerus -89.0514 35.0236 -119.335
rradius 90.0502
rwrist 24.3411
rhand -43.9532 -2.7915
rfingers 7.12502
rthumb -16.7762 -32.0867
lclavicle 2.43822e-016 -1.96797e-014
lhumerus -84.8361 -44.3115 122.449
lradius 75.1858
lwrist -27.718
lhand -44.2991 -3.41368
lfingers 7.12502
lthumb -17.1091 25.853
rfemur 346.581 -604.193 35.7159
rtibia 39.9777
rfoot -450.85 -49.6676
rtoes 1.35174e-013
lfemur -32.4401 0.72019 -6.49154
ltibia 75.0509
lfoot -3.88174 -8.85279
ltoes -2.13097e-013
